<mxfile host="app.diagrams.net" modified="2023-05-20T20:17:10.284Z" agent="Mozilla/5.0 (Windows NT 10.0; Win64; x64) AppleWebKit/537.36 (KHTML, like Gecko) Chrome/113.0.0.0 Safari/537.36 Edg/113.0.1774.50" etag="xSAkDyZFKCp7kC1GzjyM" version="21.3.2" type="device">
  <diagram id="C5RBs43oDa-KdzZeNtuy" name="Page-1">
    <mxGraphModel dx="2206" dy="764" grid="1" gridSize="10" guides="1" tooltips="1" connect="1" arrows="1" fold="1" page="1" pageScale="1" pageWidth="827" pageHeight="1169" math="0" shadow="0">
      <root>
        <mxCell id="WIyWlLk6GJQsqaUBKTNV-0" />
        <mxCell id="WIyWlLk6GJQsqaUBKTNV-1" parent="WIyWlLk6GJQsqaUBKTNV-0" />
        <mxCell id="_LzhuBnvQWJLsOA5y3FP-63" value="&lt;p style=&quot;margin:0px;margin-top:6px;text-align:center;&quot;&gt;&lt;b&gt;Conveyor Line&lt;/b&gt;&lt;/p&gt;&lt;hr&gt;&lt;p style=&quot;margin:0px;margin-left:8px;&quot;&gt;&lt;br&gt;&lt;/p&gt;" style="align=left;overflow=fill;html=1;dropTarget=0;whiteSpace=wrap;" vertex="1" parent="WIyWlLk6GJQsqaUBKTNV-1">
          <mxGeometry x="140" y="710" width="540" height="340" as="geometry" />
        </mxCell>
        <mxCell id="_LzhuBnvQWJLsOA5y3FP-64" value="" style="shape=component;jettyWidth=8;jettyHeight=4;" vertex="1" parent="_LzhuBnvQWJLsOA5y3FP-63">
          <mxGeometry x="1" width="20" height="20" relative="1" as="geometry">
            <mxPoint x="-24" y="4" as="offset" />
          </mxGeometry>
        </mxCell>
        <mxCell id="_LzhuBnvQWJLsOA5y3FP-10" value="&lt;p style=&quot;margin:0px;margin-top:6px;text-align:center;&quot;&gt;&lt;b&gt;Conveyor Line Segment&lt;/b&gt;&lt;/p&gt;&lt;hr&gt;&lt;p style=&quot;margin:0px;margin-left:8px;&quot;&gt;&lt;br&gt;&lt;/p&gt;" style="align=left;overflow=fill;html=1;dropTarget=0;whiteSpace=wrap;" vertex="1" parent="WIyWlLk6GJQsqaUBKTNV-1">
          <mxGeometry x="150" y="150" width="580" height="470" as="geometry" />
        </mxCell>
        <mxCell id="_LzhuBnvQWJLsOA5y3FP-11" value="" style="shape=component;jettyWidth=8;jettyHeight=4;" vertex="1" parent="_LzhuBnvQWJLsOA5y3FP-10">
          <mxGeometry x="1" width="20" height="20" relative="1" as="geometry">
            <mxPoint x="-24" y="4" as="offset" />
          </mxGeometry>
        </mxCell>
        <mxCell id="_LzhuBnvQWJLsOA5y3FP-0" value="&lt;p style=&quot;margin:0px;margin-top:6px;text-align:center;&quot;&gt;Repair Spot Analyzer&lt;/p&gt;&lt;p style=&quot;margin:0px;margin-left:8px;&quot;&gt;&lt;br&gt;&lt;/p&gt;" style="align=left;overflow=fill;html=1;dropTarget=0;whiteSpace=wrap;" vertex="1" parent="WIyWlLk6GJQsqaUBKTNV-1">
          <mxGeometry x="180" y="200" width="180" height="90" as="geometry" />
        </mxCell>
        <mxCell id="_LzhuBnvQWJLsOA5y3FP-1" value="" style="shape=component;jettyWidth=8;jettyHeight=4;" vertex="1" parent="_LzhuBnvQWJLsOA5y3FP-0">
          <mxGeometry x="1" width="20" height="20" relative="1" as="geometry">
            <mxPoint x="-24" y="4" as="offset" />
          </mxGeometry>
        </mxCell>
        <mxCell id="_LzhuBnvQWJLsOA5y3FP-3" value="&lt;p style=&quot;margin:0px;margin-top:6px;text-align:center;&quot;&gt;&lt;b&gt;Repair Zone Analyzer&lt;/b&gt;&lt;/p&gt;&lt;p style=&quot;margin:0px;margin-left:8px;&quot;&gt;&lt;br&gt;&lt;/p&gt;" style="align=left;overflow=fill;html=1;dropTarget=0;whiteSpace=wrap;" vertex="1" parent="WIyWlLk6GJQsqaUBKTNV-1">
          <mxGeometry x="180" y="410" width="180" height="90" as="geometry" />
        </mxCell>
        <mxCell id="_LzhuBnvQWJLsOA5y3FP-4" value="" style="shape=component;jettyWidth=8;jettyHeight=4;" vertex="1" parent="_LzhuBnvQWJLsOA5y3FP-3">
          <mxGeometry x="1" width="20" height="20" relative="1" as="geometry">
            <mxPoint x="-24" y="4" as="offset" />
          </mxGeometry>
        </mxCell>
        <mxCell id="_LzhuBnvQWJLsOA5y3FP-5" value="&lt;p style=&quot;margin:0px;margin-top:6px;text-align:center;&quot;&gt;&lt;b&gt;Repair Zone Worker List&lt;/b&gt;&lt;/p&gt;&lt;p style=&quot;margin:0px;margin-left:8px;&quot;&gt;&lt;br&gt;&lt;/p&gt;" style="align=left;overflow=fill;html=1;dropTarget=0;whiteSpace=wrap;" vertex="1" parent="WIyWlLk6GJQsqaUBKTNV-1">
          <mxGeometry x="440" y="330" width="180" height="90" as="geometry" />
        </mxCell>
        <mxCell id="_LzhuBnvQWJLsOA5y3FP-6" value="" style="shape=component;jettyWidth=8;jettyHeight=4;" vertex="1" parent="_LzhuBnvQWJLsOA5y3FP-5">
          <mxGeometry x="1" width="20" height="20" relative="1" as="geometry">
            <mxPoint x="-24" y="4" as="offset" />
          </mxGeometry>
        </mxCell>
        <mxCell id="_LzhuBnvQWJLsOA5y3FP-7" value="&lt;p style=&quot;margin:0px;margin-top:6px;text-align:center;&quot;&gt;&lt;b&gt;Global Worker List&lt;/b&gt;&lt;/p&gt;" style="align=left;overflow=fill;html=1;dropTarget=0;whiteSpace=wrap;" vertex="1" parent="WIyWlLk6GJQsqaUBKTNV-1">
          <mxGeometry x="440" y="790" width="180" height="90" as="geometry" />
        </mxCell>
        <mxCell id="_LzhuBnvQWJLsOA5y3FP-8" value="" style="shape=component;jettyWidth=8;jettyHeight=4;" vertex="1" parent="_LzhuBnvQWJLsOA5y3FP-7">
          <mxGeometry x="1" width="20" height="20" relative="1" as="geometry">
            <mxPoint x="-24" y="4" as="offset" />
          </mxGeometry>
        </mxCell>
        <mxCell id="_LzhuBnvQWJLsOA5y3FP-12" value="" style="rounded=0;whiteSpace=wrap;html=1;" vertex="1" parent="WIyWlLk6GJQsqaUBKTNV-1">
          <mxGeometry x="520" y="610" width="20" height="20" as="geometry" />
        </mxCell>
        <mxCell id="_LzhuBnvQWJLsOA5y3FP-13" value="Worker" style="text;html=1;align=center;verticalAlign=middle;resizable=0;points=[];autosize=1;strokeColor=none;fillColor=none;" vertex="1" parent="WIyWlLk6GJQsqaUBKTNV-1">
          <mxGeometry x="540" y="500" width="60" height="30" as="geometry" />
        </mxCell>
        <mxCell id="_LzhuBnvQWJLsOA5y3FP-14" value="" style="endArrow=none;html=1;rounded=0;entryX=0.5;entryY=1;entryDx=0;entryDy=0;exitX=0.5;exitY=0;exitDx=0;exitDy=0;" edge="1" parent="WIyWlLk6GJQsqaUBKTNV-1" source="_LzhuBnvQWJLsOA5y3FP-7" target="_LzhuBnvQWJLsOA5y3FP-12">
          <mxGeometry width="50" height="50" relative="1" as="geometry">
            <mxPoint x="510" y="730" as="sourcePoint" />
            <mxPoint x="560" y="680" as="targetPoint" />
          </mxGeometry>
        </mxCell>
        <mxCell id="_LzhuBnvQWJLsOA5y3FP-15" value="" style="rounded=0;orthogonalLoop=1;jettySize=auto;html=1;endArrow=none;endFill=0;sketch=0;sourcePerimeterSpacing=0;targetPerimeterSpacing=0;exitX=0.5;exitY=1;exitDx=0;exitDy=0;" edge="1" target="_LzhuBnvQWJLsOA5y3FP-17" parent="WIyWlLk6GJQsqaUBKTNV-1" source="_LzhuBnvQWJLsOA5y3FP-5">
          <mxGeometry relative="1" as="geometry">
            <mxPoint x="530" y="515" as="sourcePoint" />
          </mxGeometry>
        </mxCell>
        <mxCell id="_LzhuBnvQWJLsOA5y3FP-16" value="" style="rounded=0;orthogonalLoop=1;jettySize=auto;html=1;endArrow=halfCircle;endFill=0;entryX=0.5;entryY=0.5;endSize=6;strokeWidth=1;sketch=0;exitX=0.5;exitY=0;exitDx=0;exitDy=0;" edge="1" target="_LzhuBnvQWJLsOA5y3FP-17" parent="WIyWlLk6GJQsqaUBKTNV-1" source="_LzhuBnvQWJLsOA5y3FP-12">
          <mxGeometry relative="1" as="geometry">
            <mxPoint x="570" y="515" as="sourcePoint" />
          </mxGeometry>
        </mxCell>
        <mxCell id="_LzhuBnvQWJLsOA5y3FP-17" value="" style="ellipse;whiteSpace=wrap;html=1;align=center;aspect=fixed;resizable=0;points=[];outlineConnect=0;sketch=0;" vertex="1" parent="WIyWlLk6GJQsqaUBKTNV-1">
          <mxGeometry x="525" y="510" width="10" height="10" as="geometry" />
        </mxCell>
        <mxCell id="_LzhuBnvQWJLsOA5y3FP-18" value="" style="rounded=0;orthogonalLoop=1;jettySize=auto;html=1;endArrow=none;endFill=0;sketch=0;sourcePerimeterSpacing=0;targetPerimeterSpacing=0;exitX=1;exitY=0.5;exitDx=0;exitDy=0;" edge="1" target="_LzhuBnvQWJLsOA5y3FP-20" parent="WIyWlLk6GJQsqaUBKTNV-1" source="_LzhuBnvQWJLsOA5y3FP-0">
          <mxGeometry relative="1" as="geometry">
            <mxPoint x="450" y="255" as="sourcePoint" />
          </mxGeometry>
        </mxCell>
        <mxCell id="_LzhuBnvQWJLsOA5y3FP-19" value="" style="rounded=0;orthogonalLoop=1;jettySize=auto;html=1;endArrow=halfCircle;endFill=0;entryX=0.5;entryY=0.5;endSize=6;strokeWidth=1;sketch=0;exitX=0.5;exitY=0;exitDx=0;exitDy=0;" edge="1" target="_LzhuBnvQWJLsOA5y3FP-20" parent="WIyWlLk6GJQsqaUBKTNV-1" source="_LzhuBnvQWJLsOA5y3FP-5">
          <mxGeometry relative="1" as="geometry">
            <mxPoint x="490" y="255" as="sourcePoint" />
          </mxGeometry>
        </mxCell>
        <mxCell id="_LzhuBnvQWJLsOA5y3FP-20" value="" style="ellipse;whiteSpace=wrap;html=1;align=center;aspect=fixed;resizable=0;points=[];outlineConnect=0;sketch=0;" vertex="1" parent="WIyWlLk6GJQsqaUBKTNV-1">
          <mxGeometry x="525" y="240" width="10" height="10" as="geometry" />
        </mxCell>
        <mxCell id="_LzhuBnvQWJLsOA5y3FP-21" value="Assign Worker" style="text;html=1;align=center;verticalAlign=middle;resizable=0;points=[];autosize=1;strokeColor=none;fillColor=none;" vertex="1" parent="WIyWlLk6GJQsqaUBKTNV-1">
          <mxGeometry x="480" y="210" width="100" height="30" as="geometry" />
        </mxCell>
        <mxCell id="_LzhuBnvQWJLsOA5y3FP-22" value="&lt;p style=&quot;margin:0px;margin-top:6px;text-align:center;&quot;&gt;&lt;b&gt;Tickets Department&lt;/b&gt;&lt;/p&gt;&lt;hr&gt;&lt;p style=&quot;margin:0px;margin-left:8px;&quot;&gt;&lt;br&gt;&lt;/p&gt;" style="align=left;overflow=fill;html=1;dropTarget=0;whiteSpace=wrap;" vertex="1" parent="WIyWlLk6GJQsqaUBKTNV-1">
          <mxGeometry x="-400" y="150" width="340" height="290" as="geometry" />
        </mxCell>
        <mxCell id="_LzhuBnvQWJLsOA5y3FP-23" value="" style="shape=component;jettyWidth=8;jettyHeight=4;" vertex="1" parent="_LzhuBnvQWJLsOA5y3FP-22">
          <mxGeometry x="1" width="20" height="20" relative="1" as="geometry">
            <mxPoint x="-24" y="4" as="offset" />
          </mxGeometry>
        </mxCell>
        <mxCell id="_LzhuBnvQWJLsOA5y3FP-24" value="" style="rounded=0;whiteSpace=wrap;html=1;" vertex="1" parent="WIyWlLk6GJQsqaUBKTNV-1">
          <mxGeometry x="-70" y="370" width="20" height="20" as="geometry" />
        </mxCell>
        <mxCell id="_LzhuBnvQWJLsOA5y3FP-25" value="" style="rounded=0;whiteSpace=wrap;html=1;" vertex="1" parent="WIyWlLk6GJQsqaUBKTNV-1">
          <mxGeometry x="-70" y="235" width="20" height="20" as="geometry" />
        </mxCell>
        <mxCell id="_LzhuBnvQWJLsOA5y3FP-26" value="&lt;p style=&quot;margin:0px;margin-top:6px;text-align:center;&quot;&gt;Accounting&lt;/p&gt;&lt;hr&gt;&lt;p style=&quot;margin:0px;margin-left:8px;&quot;&gt;&lt;br&gt;&lt;/p&gt;" style="align=left;overflow=fill;html=1;dropTarget=0;whiteSpace=wrap;" vertex="1" parent="WIyWlLk6GJQsqaUBKTNV-1">
          <mxGeometry x="-390" y="320" width="150" height="80" as="geometry" />
        </mxCell>
        <mxCell id="_LzhuBnvQWJLsOA5y3FP-27" value="" style="shape=component;jettyWidth=8;jettyHeight=4;" vertex="1" parent="_LzhuBnvQWJLsOA5y3FP-26">
          <mxGeometry x="1" width="20" height="20" relative="1" as="geometry">
            <mxPoint x="-24" y="4" as="offset" />
          </mxGeometry>
        </mxCell>
        <mxCell id="_LzhuBnvQWJLsOA5y3FP-28" value="" style="endArrow=none;html=1;rounded=0;entryX=0;entryY=0.75;entryDx=0;entryDy=0;exitX=1;exitY=0.5;exitDx=0;exitDy=0;" edge="1" parent="WIyWlLk6GJQsqaUBKTNV-1" source="_LzhuBnvQWJLsOA5y3FP-24" target="_LzhuBnvQWJLsOA5y3FP-3">
          <mxGeometry width="50" height="50" relative="1" as="geometry">
            <mxPoint x="20" y="320" as="sourcePoint" />
            <mxPoint x="70" y="270" as="targetPoint" />
          </mxGeometry>
        </mxCell>
        <mxCell id="_LzhuBnvQWJLsOA5y3FP-29" value="" style="rounded=0;orthogonalLoop=1;jettySize=auto;html=1;endArrow=none;endFill=0;sketch=0;sourcePerimeterSpacing=0;targetPerimeterSpacing=0;exitX=1;exitY=0.75;exitDx=0;exitDy=0;" edge="1" target="_LzhuBnvQWJLsOA5y3FP-31" parent="WIyWlLk6GJQsqaUBKTNV-1" source="_LzhuBnvQWJLsOA5y3FP-26">
          <mxGeometry relative="1" as="geometry">
            <mxPoint x="-180" y="285" as="sourcePoint" />
          </mxGeometry>
        </mxCell>
        <mxCell id="_LzhuBnvQWJLsOA5y3FP-30" value="" style="rounded=0;orthogonalLoop=1;jettySize=auto;html=1;endArrow=halfCircle;endFill=0;entryX=0.5;entryY=0.5;endSize=6;strokeWidth=1;sketch=0;exitX=0;exitY=0.5;exitDx=0;exitDy=0;" edge="1" target="_LzhuBnvQWJLsOA5y3FP-31" parent="WIyWlLk6GJQsqaUBKTNV-1" source="_LzhuBnvQWJLsOA5y3FP-24">
          <mxGeometry relative="1" as="geometry">
            <mxPoint x="-140" y="285" as="sourcePoint" />
          </mxGeometry>
        </mxCell>
        <mxCell id="_LzhuBnvQWJLsOA5y3FP-31" value="" style="ellipse;whiteSpace=wrap;html=1;align=center;aspect=fixed;resizable=0;points=[];outlineConnect=0;sketch=0;" vertex="1" parent="WIyWlLk6GJQsqaUBKTNV-1">
          <mxGeometry x="-170" y="375" width="10" height="10" as="geometry" />
        </mxCell>
        <mxCell id="_LzhuBnvQWJLsOA5y3FP-32" value="Worker Tickets" style="text;html=1;align=center;verticalAlign=middle;resizable=0;points=[];autosize=1;strokeColor=none;fillColor=none;" vertex="1" parent="WIyWlLk6GJQsqaUBKTNV-1">
          <mxGeometry x="-210" y="335" width="100" height="30" as="geometry" />
        </mxCell>
        <mxCell id="_LzhuBnvQWJLsOA5y3FP-33" value="&lt;p style=&quot;margin:0px;margin-top:6px;text-align:center;&quot;&gt;&lt;b&gt;Foremans lobby&lt;/b&gt;&lt;/p&gt;&lt;hr&gt;&lt;p style=&quot;margin:0px;margin-left:8px;&quot;&gt;&lt;br&gt;&lt;/p&gt;" style="align=left;overflow=fill;html=1;dropTarget=0;whiteSpace=wrap;" vertex="1" parent="WIyWlLk6GJQsqaUBKTNV-1">
          <mxGeometry x="-390" y="200" width="150" height="80" as="geometry" />
        </mxCell>
        <mxCell id="_LzhuBnvQWJLsOA5y3FP-34" value="" style="shape=component;jettyWidth=8;jettyHeight=4;" vertex="1" parent="_LzhuBnvQWJLsOA5y3FP-33">
          <mxGeometry x="1" width="20" height="20" relative="1" as="geometry">
            <mxPoint x="-24" y="4" as="offset" />
          </mxGeometry>
        </mxCell>
        <mxCell id="_LzhuBnvQWJLsOA5y3FP-35" value="" style="endArrow=none;html=1;rounded=0;exitX=1;exitY=0.5;exitDx=0;exitDy=0;entryX=0;entryY=0.5;entryDx=0;entryDy=0;" edge="1" parent="WIyWlLk6GJQsqaUBKTNV-1" source="_LzhuBnvQWJLsOA5y3FP-25" target="_LzhuBnvQWJLsOA5y3FP-0">
          <mxGeometry width="50" height="50" relative="1" as="geometry">
            <mxPoint x="20" y="290" as="sourcePoint" />
            <mxPoint x="70" y="240" as="targetPoint" />
          </mxGeometry>
        </mxCell>
        <mxCell id="_LzhuBnvQWJLsOA5y3FP-36" value="" style="rounded=0;orthogonalLoop=1;jettySize=auto;html=1;endArrow=none;endFill=0;sketch=0;sourcePerimeterSpacing=0;targetPerimeterSpacing=0;exitX=1;exitY=0.5;exitDx=0;exitDy=0;" edge="1" target="_LzhuBnvQWJLsOA5y3FP-38" parent="WIyWlLk6GJQsqaUBKTNV-1" source="_LzhuBnvQWJLsOA5y3FP-33">
          <mxGeometry relative="1" as="geometry">
            <mxPoint x="-10" y="315" as="sourcePoint" />
          </mxGeometry>
        </mxCell>
        <mxCell id="_LzhuBnvQWJLsOA5y3FP-37" value="" style="rounded=0;orthogonalLoop=1;jettySize=auto;html=1;endArrow=halfCircle;endFill=0;entryX=0.5;entryY=0.5;endSize=6;strokeWidth=1;sketch=0;exitX=0;exitY=0.5;exitDx=0;exitDy=0;" edge="1" target="_LzhuBnvQWJLsOA5y3FP-38" parent="WIyWlLk6GJQsqaUBKTNV-1" source="_LzhuBnvQWJLsOA5y3FP-25">
          <mxGeometry relative="1" as="geometry">
            <mxPoint x="30" y="315" as="sourcePoint" />
          </mxGeometry>
        </mxCell>
        <mxCell id="_LzhuBnvQWJLsOA5y3FP-38" value="" style="ellipse;whiteSpace=wrap;html=1;align=center;aspect=fixed;resizable=0;points=[];outlineConnect=0;sketch=0;" vertex="1" parent="WIyWlLk6GJQsqaUBKTNV-1">
          <mxGeometry x="-165" y="240" width="10" height="10" as="geometry" />
        </mxCell>
        <mxCell id="_LzhuBnvQWJLsOA5y3FP-39" value="Foremans tickets" style="text;html=1;align=center;verticalAlign=middle;resizable=0;points=[];autosize=1;strokeColor=none;fillColor=none;" vertex="1" parent="WIyWlLk6GJQsqaUBKTNV-1">
          <mxGeometry x="-215" y="200" width="110" height="30" as="geometry" />
        </mxCell>
        <mxCell id="_LzhuBnvQWJLsOA5y3FP-40" value="Foremans tickets" style="text;html=1;align=center;verticalAlign=middle;resizable=0;points=[];autosize=1;strokeColor=none;fillColor=none;" vertex="1" parent="WIyWlLk6GJQsqaUBKTNV-1">
          <mxGeometry x="10" y="210" width="110" height="30" as="geometry" />
        </mxCell>
        <mxCell id="_LzhuBnvQWJLsOA5y3FP-41" value="Worker Tickets" style="text;html=1;align=center;verticalAlign=middle;resizable=0;points=[];autosize=1;strokeColor=none;fillColor=none;" vertex="1" parent="WIyWlLk6GJQsqaUBKTNV-1">
          <mxGeometry y="345" width="100" height="30" as="geometry" />
        </mxCell>
        <mxCell id="_LzhuBnvQWJLsOA5y3FP-42" value="" style="rounded=0;whiteSpace=wrap;html=1;" vertex="1" parent="WIyWlLk6GJQsqaUBKTNV-1">
          <mxGeometry x="130" y="925" width="20" height="20" as="geometry" />
        </mxCell>
        <mxCell id="_LzhuBnvQWJLsOA5y3FP-44" value="" style="ellipse;whiteSpace=wrap;html=1;aspect=fixed;" vertex="1" parent="WIyWlLk6GJQsqaUBKTNV-1">
          <mxGeometry x="-60" y="920" width="30" height="30" as="geometry" />
        </mxCell>
        <mxCell id="_LzhuBnvQWJLsOA5y3FP-45" value="Automobile" style="text;html=1;align=center;verticalAlign=middle;resizable=0;points=[];autosize=1;strokeColor=none;fillColor=none;" vertex="1" parent="WIyWlLk6GJQsqaUBKTNV-1">
          <mxGeometry x="-80" y="880" width="80" height="30" as="geometry" />
        </mxCell>
        <mxCell id="_LzhuBnvQWJLsOA5y3FP-46" value="" style="endArrow=none;html=1;rounded=0;exitX=1;exitY=0.5;exitDx=0;exitDy=0;entryX=0;entryY=0.5;entryDx=0;entryDy=0;" edge="1" parent="WIyWlLk6GJQsqaUBKTNV-1" source="_LzhuBnvQWJLsOA5y3FP-44" target="_LzhuBnvQWJLsOA5y3FP-42">
          <mxGeometry width="50" height="50" relative="1" as="geometry">
            <mxPoint x="60" y="620" as="sourcePoint" />
            <mxPoint x="110" y="570" as="targetPoint" />
          </mxGeometry>
        </mxCell>
        <mxCell id="_LzhuBnvQWJLsOA5y3FP-47" value="" style="rounded=0;orthogonalLoop=1;jettySize=auto;html=1;endArrow=none;endFill=0;sketch=0;sourcePerimeterSpacing=0;targetPerimeterSpacing=0;exitX=0.5;exitY=1;exitDx=0;exitDy=0;" edge="1" target="_LzhuBnvQWJLsOA5y3FP-49" parent="WIyWlLk6GJQsqaUBKTNV-1" source="_LzhuBnvQWJLsOA5y3FP-3">
          <mxGeometry relative="1" as="geometry">
            <mxPoint x="250" y="575" as="sourcePoint" />
          </mxGeometry>
        </mxCell>
        <mxCell id="_LzhuBnvQWJLsOA5y3FP-48" value="" style="rounded=0;orthogonalLoop=1;jettySize=auto;html=1;endArrow=halfCircle;endFill=0;entryX=0.5;entryY=0.5;endSize=6;strokeWidth=1;sketch=0;exitX=1;exitY=0.5;exitDx=0;exitDy=0;" edge="1" target="_LzhuBnvQWJLsOA5y3FP-49" parent="WIyWlLk6GJQsqaUBKTNV-1" source="_LzhuBnvQWJLsOA5y3FP-42">
          <mxGeometry relative="1" as="geometry">
            <mxPoint x="290" y="575" as="sourcePoint" />
          </mxGeometry>
        </mxCell>
        <mxCell id="_LzhuBnvQWJLsOA5y3FP-49" value="" style="ellipse;whiteSpace=wrap;html=1;align=center;aspect=fixed;resizable=0;points=[];outlineConnect=0;sketch=0;" vertex="1" parent="WIyWlLk6GJQsqaUBKTNV-1">
          <mxGeometry x="265" y="570" width="10" height="10" as="geometry" />
        </mxCell>
        <mxCell id="_LzhuBnvQWJLsOA5y3FP-50" value="Broken Automobile" style="text;html=1;align=center;verticalAlign=middle;resizable=0;points=[];autosize=1;strokeColor=none;fillColor=none;" vertex="1" parent="WIyWlLk6GJQsqaUBKTNV-1">
          <mxGeometry x="260" y="540" width="120" height="30" as="geometry" />
        </mxCell>
        <mxCell id="_LzhuBnvQWJLsOA5y3FP-51" value="" style="rounded=0;orthogonalLoop=1;jettySize=auto;html=1;endArrow=none;endFill=0;sketch=0;sourcePerimeterSpacing=0;targetPerimeterSpacing=0;exitX=0.5;exitY=1;exitDx=0;exitDy=0;" edge="1" target="_LzhuBnvQWJLsOA5y3FP-53" parent="WIyWlLk6GJQsqaUBKTNV-1" source="_LzhuBnvQWJLsOA5y3FP-0">
          <mxGeometry relative="1" as="geometry">
            <mxPoint x="230" y="350" as="sourcePoint" />
          </mxGeometry>
        </mxCell>
        <mxCell id="_LzhuBnvQWJLsOA5y3FP-52" value="" style="rounded=0;orthogonalLoop=1;jettySize=auto;html=1;endArrow=halfCircle;endFill=0;entryX=0.5;entryY=0.5;endSize=6;strokeWidth=1;sketch=0;exitX=0.5;exitY=0;exitDx=0;exitDy=0;" edge="1" target="_LzhuBnvQWJLsOA5y3FP-53" parent="WIyWlLk6GJQsqaUBKTNV-1" source="_LzhuBnvQWJLsOA5y3FP-3">
          <mxGeometry relative="1" as="geometry">
            <mxPoint x="275" y="350" as="sourcePoint" />
          </mxGeometry>
        </mxCell>
        <mxCell id="_LzhuBnvQWJLsOA5y3FP-53" value="" style="ellipse;whiteSpace=wrap;html=1;align=center;aspect=fixed;resizable=0;points=[];outlineConnect=0;sketch=0;" vertex="1" parent="WIyWlLk6GJQsqaUBKTNV-1">
          <mxGeometry x="265" y="345" width="10" height="10" as="geometry" />
        </mxCell>
        <mxCell id="_LzhuBnvQWJLsOA5y3FP-54" value="Broken Automobile" style="text;html=1;align=center;verticalAlign=middle;resizable=0;points=[];autosize=1;strokeColor=none;fillColor=none;" vertex="1" parent="WIyWlLk6GJQsqaUBKTNV-1">
          <mxGeometry x="260" y="320" width="120" height="30" as="geometry" />
        </mxCell>
        <mxCell id="_LzhuBnvQWJLsOA5y3FP-56" value="" style="rounded=0;orthogonalLoop=1;jettySize=auto;html=1;endArrow=none;endFill=0;sketch=0;sourcePerimeterSpacing=0;targetPerimeterSpacing=0;exitX=1;exitY=0.75;exitDx=0;exitDy=0;" edge="1" target="_LzhuBnvQWJLsOA5y3FP-58" parent="WIyWlLk6GJQsqaUBKTNV-1" source="_LzhuBnvQWJLsOA5y3FP-0">
          <mxGeometry relative="1" as="geometry">
            <mxPoint x="420" y="295" as="sourcePoint" />
          </mxGeometry>
        </mxCell>
        <mxCell id="_LzhuBnvQWJLsOA5y3FP-57" value="" style="rounded=0;orthogonalLoop=1;jettySize=auto;html=1;endArrow=halfCircle;endFill=0;entryX=0.5;entryY=0.5;endSize=6;strokeWidth=1;sketch=0;exitX=0.25;exitY=0;exitDx=0;exitDy=0;" edge="1" target="_LzhuBnvQWJLsOA5y3FP-58" parent="WIyWlLk6GJQsqaUBKTNV-1" source="_LzhuBnvQWJLsOA5y3FP-5">
          <mxGeometry relative="1" as="geometry">
            <mxPoint x="460" y="295" as="sourcePoint" />
          </mxGeometry>
        </mxCell>
        <mxCell id="_LzhuBnvQWJLsOA5y3FP-58" value="" style="ellipse;whiteSpace=wrap;html=1;align=center;aspect=fixed;resizable=0;points=[];outlineConnect=0;sketch=0;" vertex="1" parent="WIyWlLk6GJQsqaUBKTNV-1">
          <mxGeometry x="435" y="290" width="10" height="10" as="geometry" />
        </mxCell>
        <mxCell id="_LzhuBnvQWJLsOA5y3FP-59" value="Foreman" style="text;html=1;align=center;verticalAlign=middle;resizable=0;points=[];autosize=1;strokeColor=none;fillColor=none;" vertex="1" parent="WIyWlLk6GJQsqaUBKTNV-1">
          <mxGeometry x="414" y="255" width="70" height="30" as="geometry" />
        </mxCell>
        <mxCell id="_LzhuBnvQWJLsOA5y3FP-60" value="" style="ellipse;whiteSpace=wrap;html=1;aspect=fixed;" vertex="1" parent="WIyWlLk6GJQsqaUBKTNV-1">
          <mxGeometry x="-50" y="820" width="30" height="30" as="geometry" />
        </mxCell>
        <mxCell id="_LzhuBnvQWJLsOA5y3FP-61" value="Worker" style="text;html=1;align=center;verticalAlign=middle;resizable=0;points=[];autosize=1;strokeColor=none;fillColor=none;" vertex="1" parent="WIyWlLk6GJQsqaUBKTNV-1">
          <mxGeometry x="-65" y="780" width="60" height="30" as="geometry" />
        </mxCell>
        <mxCell id="_LzhuBnvQWJLsOA5y3FP-66" value="" style="endArrow=none;html=1;rounded=0;exitX=1;exitY=0.5;exitDx=0;exitDy=0;entryX=0;entryY=0.5;entryDx=0;entryDy=0;" edge="1" parent="WIyWlLk6GJQsqaUBKTNV-1" source="_LzhuBnvQWJLsOA5y3FP-60" target="_LzhuBnvQWJLsOA5y3FP-65">
          <mxGeometry width="50" height="50" relative="1" as="geometry">
            <mxPoint x="-20" y="835" as="sourcePoint" />
            <mxPoint x="440" y="835" as="targetPoint" />
          </mxGeometry>
        </mxCell>
        <mxCell id="_LzhuBnvQWJLsOA5y3FP-65" value="" style="rounded=0;whiteSpace=wrap;html=1;" vertex="1" parent="WIyWlLk6GJQsqaUBKTNV-1">
          <mxGeometry x="130" y="825" width="20" height="20" as="geometry" />
        </mxCell>
        <mxCell id="_LzhuBnvQWJLsOA5y3FP-67" value="" style="rounded=0;orthogonalLoop=1;jettySize=auto;html=1;endArrow=none;endFill=0;sketch=0;sourcePerimeterSpacing=0;targetPerimeterSpacing=0;exitX=0;exitY=0.5;exitDx=0;exitDy=0;" edge="1" target="_LzhuBnvQWJLsOA5y3FP-69" parent="WIyWlLk6GJQsqaUBKTNV-1" source="_LzhuBnvQWJLsOA5y3FP-7">
          <mxGeometry relative="1" as="geometry">
            <mxPoint x="280" y="855" as="sourcePoint" />
          </mxGeometry>
        </mxCell>
        <mxCell id="_LzhuBnvQWJLsOA5y3FP-68" value="" style="rounded=0;orthogonalLoop=1;jettySize=auto;html=1;endArrow=halfCircle;endFill=0;entryX=0.5;entryY=0.5;endSize=6;strokeWidth=1;sketch=0;exitX=1;exitY=0.5;exitDx=0;exitDy=0;" edge="1" target="_LzhuBnvQWJLsOA5y3FP-69" parent="WIyWlLk6GJQsqaUBKTNV-1" source="_LzhuBnvQWJLsOA5y3FP-65">
          <mxGeometry relative="1" as="geometry">
            <mxPoint x="320" y="855" as="sourcePoint" />
          </mxGeometry>
        </mxCell>
        <mxCell id="_LzhuBnvQWJLsOA5y3FP-69" value="" style="ellipse;whiteSpace=wrap;html=1;align=center;aspect=fixed;resizable=0;points=[];outlineConnect=0;sketch=0;" vertex="1" parent="WIyWlLk6GJQsqaUBKTNV-1">
          <mxGeometry x="295" y="830" width="10" height="10" as="geometry" />
        </mxCell>
      </root>
    </mxGraphModel>
  </diagram>
</mxfile>
